<svg width="678" height="557" xmlns="http://www.w3.org/2000/svg" xmlns:xlink="http://www.w3.org/1999/xlink" xml:space="preserve" overflow="hidden"><defs><clipPath id="clip0"><rect x="853" y="2356" width="678" height="557"/></clipPath></defs><g clip-path="url(#clip0)" transform="translate(-853 -2356)"><path d="M853 2547C853 2516.62 877.625 2492 908.001 2492L935.5 2492 935.5 2492 1059.25 2492 1293 2492C1323.38 2492 1348 2516.62 1348 2547L1348 2684.5 1348 2684.5 1348 2767 1348 2767C1348 2797.38 1323.38 2822 1293 2822L1059.25 2822 893.817 2912.61 935.5 2822 908.001 2822C877.625 2822 853 2797.38 853 2767L853 2767 853 2684.5 853 2684.5Z" fill="#15AC5B" fill-rule="evenodd" fill-opacity="0.501961"/><path d="M0 55.0011C-7.87751e-15 24.6248 24.6248-1.5755e-14 55.0011-1.5755e-14L82.5 0 82.5 0 206.25 0 439.999 0C470.375-1.5755e-14 495 24.6248 495 55.0011L495 192.5 495 192.5 495 275 495 274.999C495 305.375 470.375 330 439.999 330L206.25 330 40.8175 420.611 82.5 330 55.0011 330C24.6248 330 0 305.375 0 274.999L0 275 0 192.5 0 192.5Z" fill="#FFFFFF" fill-rule="evenodd" fill-opacity="0.501961" transform="matrix(-1 0 0 1 1531 2356)"/></g></svg>